ply
format ascii 1.0
comment Created by Blender 2.91.2 - www.blender.org
element vertex 114
property float x
property float y
property float z
element face 224
property list uchar uint vertex_indices
end_header
-0.080488 0.881965 -0.078757
0.132912 0.446750 -0.782665
-0.459804 0.539631 -0.618788
-0.371116 0.883927 0.024730
-0.774177 0.256112 -0.382833
-0.540619 0.626538 0.399555
-0.893981 0.043291 0.332599
0.055680 -0.201462 0.894633
0.544556 -0.356435 0.591990
0.411089 0.400902 0.675757
0.533599 -0.626672 0.453550
0.463127 -0.756586 0.177564
0.907183 -0.024203 0.258650
0.501094 -0.694486 -0.277063
0.865942 -0.104969 -0.111524
0.009201 0.828911 0.172837
-0.382510 0.801094 0.201543
-0.500246 0.596751 0.524318
-0.438784 0.387386 0.656058
-0.731098 0.020377 0.481008
-0.078260 0.116340 0.881514
-0.593952 -0.471065 0.559098
0.446452 0.532525 -0.630369
-0.346156 -0.544540 -0.619268
0.307939 -0.493722 -0.698207
-0.173005 -0.845288 -0.138780
-0.907523 0.023449 -0.080384
-0.454379 -0.388480 -0.648703
-0.594855 0.430957 -0.562242
-0.137478 -0.173982 -0.846018
-0.630572 -0.475743 -0.460974
-0.483528 -0.713820 0.285177
-0.872370 -0.093737 -0.159508
-0.628476 -0.482548 0.509950
-0.890074 -0.045605 0.361728
0.511864 0.579364 0.548220
0.546537 0.561076 0.555933
0.452873 0.739242 0.263412
0.560127 0.538110 -0.572530
0.550775 0.558293 -0.564120
0.597210 0.516148 -0.525169
0.543920 -0.580418 -0.543354
0.560371 -0.555350 -0.560201
0.552354 -0.592345 -0.504825
0.154418 0.193910 -0.837384
0.848263 -0.007993 -0.399970
0.528985 -0.490537 -0.598851
-0.549046 -0.528123 -0.573147
-0.617889 -0.438920 -0.535280
-0.532382 -0.561082 -0.565088
-0.019654 -0.329992 -0.902363
0.425265 0.806620 0.071104
0.334615 0.905038 0.005239
-0.130311 0.908816 0.022811
-0.334165 0.908126 -0.003924
0.893534 -0.027289 0.339324
0.902938 0.011726 0.335395
0.858494 -0.042046 0.385051
0.806620 0.071104 0.425265
0.739240 0.263415 0.452874
-0.768090 0.216561 0.444043
-0.906928 -0.008514 0.344127
-0.891375 0.032189 -0.365959
-0.904528 -0.005773 -0.344648
0.096939 0.442495 0.784966
-0.000537 0.341708 0.900365
0.263415 0.452874 0.739240
-0.001352 0.280754 0.909628
-0.052978 0.343968 0.881988
0.082800 0.326833 0.872369
-0.011512 -0.345930 0.901096
0.009362 -0.305347 0.908724
-0.032516 -0.294460 0.901517
0.025600 0.352377 -0.899919
-0.016611 0.354413 -0.906393
-0.559586 0.553843 -0.566796
-0.245261 0.395284 -0.776576
0.572399 0.551696 0.528964
0.280002 0.907221 -0.019014
0.193910 -0.837384 0.154418
0.343744 -0.897503 0.035938
0.497608 -0.636856 0.466270
0.355011 -0.905247 -0.001818
-0.361286 -0.890247 0.000208
-0.355812 -0.863753 0.092505
-0.493687 -0.600583 0.525989
-0.562352 -0.557426 0.558948
0.551627 0.530660 0.572067
0.898463 0.051203 -0.004895
0.676546 0.409815 0.401504
0.908778 0.009144 -0.305577
-0.563571 0.567991 0.541869
-0.591823 0.524833 -0.544735
0.007144 -0.349757 -0.900904
0.090995 -0.355513 -0.864559
-0.007158 -0.400504 0.847520
0.018616 -0.910054 0.012968
-0.327717 -0.902406 -0.021527
0.344427 -0.902111 -0.028688
0.405968 -0.745234 -0.298707
0.387094 0.855435 -0.046488
-0.563355 -0.560256 -0.540673
0.795840 0.220839 -0.257713
0.897532 0.001766 -0.355968
0.557646 -0.570743 0.541883
0.548327 -0.568379 0.559307
0.900906 -0.028846 -0.320066
0.516148 -0.525169 0.597210
0.026831 -0.366073 0.885107
0.012089 0.024742 -0.910406
-0.570684 0.539228 0.555764
0.591990 0.544555 -0.356434
-0.333850 -0.903886 0.008609
-0.044883 0.386971 0.855910
3 0 1 2
3 3 4 5
3 4 6 5
3 7 8 9
3 10 11 12
3 11 13 14
3 15 16 17
3 18 19 20
3 19 21 20
3 22 1 0
3 23 24 25
3 4 26 6
3 27 28 29
3 30 31 32
3 33 34 32
3 35 36 37
3 38 39 40
3 41 42 43
3 44 45 46
3 27 47 48
3 49 47 50
3 51 52 37
3 53 54 16
3 16 54 3
3 55 56 57
3 58 56 59
3 12 56 55
3 60 61 34
3 60 6 61
3 4 62 26
3 48 63 62
3 64 65 66
3 20 67 68
3 69 65 67
3 70 71 72
3 1 73 74
3 1 74 2
3 2 74 75
3 75 76 28
3 32 63 30
3 62 27 48
3 51 37 77
3 52 15 35
3 54 53 78
3 79 80 81
3 80 82 10
3 82 11 10
3 83 84 31
3 84 85 86
3 58 59 87
3 56 88 89
3 90 88 56
3 90 56 12
3 6 60 91
3 62 92 28
3 62 4 92
3 64 66 35
3 65 69 66
3 72 67 20
3 71 7 67
3 7 69 67
3 44 73 38
3 73 1 22
3 93 94 24
3 94 46 42
3 29 50 27
3 95 70 86
3 79 96 80
3 84 96 79
3 97 98 96
3 97 25 98
3 98 25 99
3 78 52 39
3 78 39 22
3 52 100 39
3 101 83 30
3 26 63 61
3 6 26 61
3 61 32 34
3 63 32 61
3 102 90 40
3 40 103 38
3 13 82 43
3 43 98 41
3 12 55 104
3 104 55 105
3 12 104 10
3 55 57 105
3 16 3 91
3 75 54 2
3 45 103 42
3 106 43 42
3 7 71 107
3 107 108 105
3 105 95 81
3 44 109 73
3 94 109 44
3 50 74 109
3 50 29 74
3 74 29 76
3 68 91 110
3 19 34 21
3 21 34 33
3 102 111 89
3 9 8 58
3 9 69 7
3 46 94 44
3 35 15 64
3 15 17 64
3 85 84 79
3 41 99 24
3 12 11 14
3 53 16 15
3 20 21 72
3 78 22 0
3 24 99 25
3 27 62 28
3 28 76 29
3 31 33 32
3 66 87 36
3 59 77 87
3 87 77 36
3 37 36 77
3 38 22 39
3 41 24 42
3 91 60 110
3 28 92 75
3 33 86 21
3 47 49 101
3 48 47 101
3 51 100 52
3 80 96 82
3 83 112 84
3 97 112 83
3 84 112 96
3 58 57 56
3 106 103 90
3 19 60 34
3 26 62 63
3 64 113 65
3 113 68 65
3 68 67 65
3 95 108 70
3 73 109 74
3 30 63 101
3 94 93 109
3 75 74 76
3 77 89 51
3 101 63 48
3 37 52 35
3 0 54 78
3 78 53 52
3 81 80 10
3 31 84 86
3 87 9 58
3 77 56 89
3 59 56 77
3 14 106 12
3 106 90 12
3 50 93 49
3 35 66 36
3 87 69 9
3 66 69 87
3 72 71 67
3 38 73 22
3 24 94 42
3 27 50 47
3 49 93 23
3 93 24 23
3 85 95 86
3 112 97 96
3 100 51 111
3 40 100 111
3 97 83 101
3 83 31 30
3 40 90 103
3 111 102 40
3 102 88 90
3 103 45 38
3 41 98 99
3 43 82 98
3 57 58 8
3 107 57 8
3 17 16 91
3 91 3 5
3 92 3 75
3 4 3 92
3 75 3 54
3 54 0 2
3 46 45 42
3 42 103 106
3 107 71 108
3 8 7 107
3 108 95 105
3 93 50 109
3 18 20 68
3 18 68 110
3 91 68 113
3 17 113 64
3 89 111 51
3 89 88 102
3 79 95 85
3 104 81 10
3 60 18 110
3 49 97 101
3 82 13 11
3 82 96 98
3 70 108 71
3 15 52 53
3 86 33 31
3 91 5 6
3 72 86 70
3 49 25 97
3 100 40 39
3 14 43 106
3 57 107 105
3 113 17 91
3 44 38 45
3 79 81 95
3 104 105 81
3 60 19 18
3 72 21 86
3 49 23 25
3 14 13 43
