ply
format ascii 1.0
comment Created by Blender 2.91.2 - www.blender.org
element vertex 45
property float x
property float y
property float z
element face 86
property list uchar uint vertex_indices
end_header
-0.612780 -0.013610 0.349697
-0.274818 -0.609658 0.111483
-0.020100 -0.076955 0.870355
-0.866600 -0.046771 0.057207
0.874984 0.036285 0.063777
0.096952 0.560215 0.338912
0.010436 0.053795 0.896040
0.670024 0.295619 0.000107
0.852725 -0.050448 -0.072322
0.274818 -0.609658 -0.111483
0.066354 -0.020030 -0.880860
-0.355691 0.088195 0.554102
-0.019285 0.517063 0.447075
-0.019792 0.877257 0.069011
-0.842037 0.039221 -0.097558
-0.274818 0.609658 -0.111483
-0.065743 0.018151 -0.881769
0.909750 -0.024777 0.014354
0.906365 0.022242 -0.022242
0.680070 0.088675 -0.223775
0.641185 -0.003708 -0.319752
-0.909750 0.024777 0.014354
-0.911746 -0.020261 -0.010558
0.009103 -0.914909 0.015061
0.022849 -0.918546 -0.007487
0.033711 -0.842240 0.102260
-0.020132 -0.608994 0.348354
-0.042543 -0.003277 0.898441
0.028519 -0.001235 0.909526
0.089933 -0.062409 0.826498
-0.022479 -0.051901 -0.892804
-0.001235 0.028519 -0.909526
0.072884 0.074256 -0.829275
0.040431 0.875225 -0.061115
0.086574 0.857131 0.027219
-0.614690 -0.347590 -0.011477
-0.036108 -0.908487 -0.001987
-0.020132 0.608994 -0.348354
-0.854387 -0.014608 -0.099515
-0.286672 -0.484879 -0.229972
0.494918 -0.038872 0.461196
0.614690 -0.347589 0.011477
-0.000000 -0.619941 -0.347778
-0.614690 0.347589 0.011477
-0.020501 0.915585 -0.008178
3 0 1 2
3 1 0 3
3 4 5 6
3 5 4 7
3 8 9 10
3 11 12 13
3 14 15 16
3 17 18 4
3 18 17 8
3 7 18 19
3 18 20 19
3 21 22 3
3 21 0 11
3 22 21 14
3 23 24 25
3 26 23 25
3 27 6 11
3 27 28 6
3 11 6 12
3 28 2 29
3 30 31 10
3 10 31 32
3 33 7 19
3 34 5 7
3 35 36 1
3 12 6 5
3 8 10 20
3 31 37 33
3 37 16 15
3 16 38 14
3 30 39 38
3 29 25 40
3 2 26 25
3 26 2 1
3 25 41 40
3 41 24 9
3 30 42 39
3 42 10 9
3 13 43 11
3 43 44 15
3 28 40 4
3 33 19 32
3 40 17 4
3 4 18 7
3 41 17 40
3 20 18 8
3 8 17 41
3 0 21 3
3 3 22 35
3 43 21 11
3 38 22 14
3 14 21 43
3 35 22 38
3 37 44 33
3 33 44 34
3 15 44 37
3 34 44 13
3 32 20 10
3 42 36 39
3 42 24 36
3 24 23 36
3 9 24 42
3 36 23 26
3 1 36 26
3 2 28 27
3 16 31 30
3 5 13 12
3 33 34 7
3 38 39 35
3 39 36 35
3 35 1 3
3 32 31 33
3 37 31 16
3 38 16 30
3 29 2 25
3 25 24 41
3 41 9 8
3 42 30 10
3 13 44 43
3 43 15 14
3 6 28 4
3 40 28 29
3 2 27 0
3 0 27 11
3 32 19 20
3 5 34 13
