ply
format ascii 1.0
comment Created by Blender 2.91.2 - www.blender.org
element vertex 262
property float x
property float y
property float z
element face 483
property list uchar uint vertex_indices
end_header
0.470058 -0.764589 0.241298
0.438694 -0.775860 0.147380
0.633369 -0.566534 0.242106
-0.438694 -0.775860 0.147380
-0.470329 -0.764472 0.242211
-0.633263 -0.566494 0.242030
0.355748 -0.790130 0.128909
0.267741 -0.807652 0.155702
0.351562 -0.718750 0.031250
-0.266875 -0.807790 0.156175
-0.355748 -0.790130 0.128909
-0.351562 -0.718750 0.031250
0.065623 -0.664332 0.241473
0.156250 -0.648438 0.054688
0.239290 -0.806081 0.240491
0.260789 -0.809315 0.329857
-0.261085 -0.809485 0.330444
-0.239431 -0.806300 0.239776
-0.066086 -0.663968 0.241075
-0.156250 -0.648438 0.437500
0.546875 -0.578125 0.437500
0.439894 -0.774481 0.338890
-0.439760 -0.774885 0.339573
0.351562 -0.828125 0.242188
-0.351562 -0.828125 0.242188
0.345821 -0.794372 0.372118
-0.346135 -0.793986 0.371402
0.273289 -0.648504 -0.886184
0.017284 -0.591458 -0.984477
0.365799 -0.528840 -0.923413
-0.852831 -0.588270 0.421193
-0.742188 -0.656250 0.375000
-0.524424 -0.771780 0.492974
-0.248244 -0.854577 0.648821
-0.313973 -0.729632 0.743532
0.156250 -0.757812 0.718750
0.252976 -0.850654 0.656178
0.314430 -0.729497 0.742366
-0.000467 -0.744456 0.418818
-0.101562 -0.843750 0.429688
0.019608 -0.829078 0.344889
-0.262331 -0.757512 0.493133
-0.574115 -0.686721 0.365077
0.109622 -0.784855 -0.127367
0.404942 -0.679367 -0.022652
0.176395 -0.746879 0.116263
-0.125000 -0.812500 -0.101562
-0.400689 -0.693439 0.011045
-0.590984 -0.618310 -0.000865
0.001567 -0.736802 0.080515
-0.190722 -0.743527 0.100273
-0.113311 -0.763831 0.281239
-0.071587 -0.695822 -0.872401
-0.272967 -0.649776 -0.886192
0.081207 -0.701942 -0.860197
0.101129 -0.733665 -0.734649
-0.100568 -0.732998 -0.733082
-0.000997 -0.731523 -0.769550
0.130492 -0.812825 -0.225592
0.113663 -0.742126 -0.260322
-0.130561 -0.812502 -0.226255
-0.103977 -0.778493 -0.129310
-0.118663 -0.741596 -0.254975
0.051984 -0.797110 -0.128666
0.000000 -0.742188 -0.140625
0.000000 -0.796875 -0.187500
0.000000 -0.750000 -0.195312
-0.044791 -0.796424 -0.128802
0.000000 -0.828125 -0.203125
-0.000176 -0.793512 -0.307065
0.215819 -0.557337 -0.191112
0.172976 -0.713969 -0.285087
0.312500 -0.570312 -0.437500
0.081971 -0.660003 -0.767531
-0.065226 -0.631841 -0.852450
-0.093750 -0.664062 -0.750000
-0.187443 -0.774880 0.146493
-0.191205 -0.783161 0.350270
0.553539 -0.690202 0.148043
0.373829 -0.728236 0.086535
-0.460760 -0.707842 0.120128
-0.374026 -0.727129 0.085633
-0.543159 -0.683209 0.212734
0.669911 -0.605583 0.106995
0.572695 -0.688196 0.365439
-0.412973 -0.752534 0.388532
0.301068 -0.747120 0.492694
0.323755 -0.762084 0.434255
0.411560 -0.752042 0.390627
-0.321577 -0.762373 0.435753
0.186287 -0.781304 0.369339
0.276749 -0.766723 0.396878
0.335938 -0.750000 0.406250
-0.280962 -0.770937 0.396572
0.551672 -0.675783 0.288132
-0.531250 -0.679688 0.335938
-0.554688 -0.671875 0.281250
0.546875 -0.671875 0.210938
0.460938 -0.703125 0.117188
0.242188 -0.757812 0.125000
0.188102 -0.774922 0.145992
0.199861 -0.747545 0.172703
-0.242188 -0.757812 0.125000
-0.199861 -0.747545 0.172703
0.195312 -0.757812 0.296875
-0.195312 -0.757812 0.296875
0.109375 -0.609375 0.460938
0.000000 -0.601562 0.406250
-0.121205 -0.607582 0.483398
-0.335938 -0.593750 0.687500
-0.484375 -0.554688 0.554688
-0.007071 -0.327148 -0.561855
0.321192 -0.408725 -0.910612
-0.000430 -0.348667 -0.796641
-0.244842 -0.375364 -0.458560
0.059947 -0.441945 -0.968755
-0.364485 -0.527463 -0.934935
-0.322199 -0.396656 -0.914282
0.250000 -0.390625 -0.500000
0.216385 -0.357038 -0.325779
-0.209580 -0.527333 -0.180863
-0.574942 -0.540223 -0.088264
-0.504813 -0.451068 -0.062996
-0.022503 0.817821 0.035665
0.000000 0.671875 -0.195312
-0.391690 0.564660 -0.080613
0.787148 0.149983 0.623497
0.796875 0.359375 0.539062
0.640625 0.445312 0.679688
0.546875 -0.578125 0.054688
0.351562 -0.617188 -0.023438
-0.773438 -0.375000 0.164062
-0.742038 -0.359345 0.397723
-0.851562 -0.054688 0.234375
0.527753 -0.450400 -0.047276
0.406250 -0.148438 -0.171875
0.734375 -0.070312 -0.046875
-0.406250 -0.148438 -0.171875
-0.729725 -0.056862 -0.042790
0.174476 -0.262033 -0.414907
-0.183651 -0.272668 -0.411856
-0.218750 -0.429688 -0.281250
-0.490828 0.691108 0.417757
-1.210536 0.399701 0.485920
-1.363250 0.444733 0.313430
-1.265625 0.406250 0.289062
1.210938 0.406250 0.078125
1.037881 0.309556 -0.075968
1.281250 0.429688 0.054688
0.828125 0.132812 -0.070312
0.773438 0.125000 -0.140625
-0.845118 0.146843 -0.049599
-1.048997 0.319236 -0.073373
-0.773438 0.125000 -0.140625
0.937324 0.232705 0.378745
0.919003 0.275109 0.278017
0.972471 0.359196 0.311042
0.593750 0.164062 -0.125000
0.709322 0.168345 -0.014957
-0.593750 0.164062 -0.125000
-0.712712 0.186871 0.004226
-0.859375 0.046875 0.320312
-0.980884 0.258508 0.376460
-0.826555 0.198045 0.283713
-0.918401 0.248653 0.435395
-0.845266 0.282498 -0.012114
-0.774670 0.291095 0.096845
0.845732 0.192558 0.305726
0.777934 0.304399 0.099183
0.849103 0.304734 0.005823
0.977009 0.356735 0.116196
0.828115 0.316130 0.081631
1.101664 0.388517 0.234511
-1.009697 0.366797 0.154870
-0.957870 0.342476 0.304972
-1.110165 0.395477 0.243877
-0.827239 0.316762 0.084726
-0.853125 0.305243 0.011729
1.034042 0.402129 0.005740
0.893377 0.262959 -0.011512
-1.042643 0.408010 0.008610
1.192819 0.462091 0.095986
1.170774 0.460286 0.345162
1.233137 0.455662 0.248091
-1.170348 0.460999 0.345691
-1.232834 0.457696 0.248317
-1.281250 0.429688 0.054688
-1.312500 0.531250 0.054688
1.363280 0.445376 0.310916
1.250000 0.546875 0.468750
1.207696 0.396355 0.489413
-0.831749 0.387405 0.350337
-1.023438 0.484375 0.437500
1.312500 0.531250 0.054688
-1.250000 0.546875 0.468750
0.833846 0.391235 0.352238
0.789062 0.328125 -0.125000
0.640625 0.429688 -0.007812
-0.789062 0.328125 -0.125000
-0.640625 0.429688 -0.007812
-0.546875 -0.578125 0.054688
-0.156250 -0.648438 0.054688
0.156250 -0.648438 0.437500
0.351562 -0.617188 0.515625
-0.351562 -0.617188 0.515625
-0.546875 -0.578125 0.437500
-0.312500 -0.570312 -0.437500
-0.164543 -0.714527 -0.278040
0.582274 -0.538726 -0.083975
0.841731 -0.572731 0.416465
0.701861 -0.701875 0.406364
0.828125 -0.445312 0.148438
-0.828125 -0.445312 0.148438
-0.156250 -0.757812 0.718750
-0.030992 -0.750424 -0.330130
0.082067 -0.636002 -0.831653
0.195312 -0.617188 0.664062
0.335938 -0.593750 0.687500
-0.195312 -0.617188 0.664062
0.484375 -0.554688 0.554688
0.737234 -0.360725 0.403135
0.773438 -0.375000 0.164062
0.001817 -0.269999 -0.474699
0.202354 -0.502753 -0.171444
0.343750 0.539062 -0.148438
0.000000 0.351562 -0.382812
0.296875 0.265625 -0.312500
-0.296875 0.265625 -0.312500
0.459720 0.709570 0.411020
0.461503 0.575505 0.027541
0.000000 0.078125 0.984375
0.453125 -0.234375 0.851562
0.453125 0.070312 0.929688
0.000000 0.851562 0.562500
-0.453125 -0.234375 0.851562
0.000000 -0.289062 0.898438
0.453125 0.382812 0.867188
-0.453125 0.382812 0.867188
-0.453125 0.070312 0.929688
0.000000 0.546875 0.898438
0.796875 -0.125000 0.562500
0.632812 -0.281250 0.453125
-0.632812 -0.281250 0.453125
-0.796875 -0.125000 0.562500
0.640625 -0.054688 0.703125
-0.793073 0.149126 0.617869
-0.640625 -0.054688 0.703125
-0.765849 0.399919 0.577760
0.460938 -0.429688 0.523438
-0.460938 -0.429688 0.523438
0.851562 -0.054688 0.234375
0.820312 0.203125 0.328125
0.429688 0.210938 -0.195312
-0.429688 0.210938 -0.195312
1.265625 0.406250 0.289062
0.925965 0.255477 0.443705
-1.210938 0.406250 0.078125
-1.190886 0.462031 0.094466
1.039062 0.492188 -0.085938
-1.039062 0.492188 -0.085938
1.023438 0.484375 0.437500
-0.351562 -0.617188 -0.023438
3 0 1 2
3 3 4 5
3 6 7 8
3 9 10 11
3 12 13 7
3 14 15 12
3 16 17 18
3 16 18 19
3 2 20 21
3 4 22 5
3 23 1 0
3 4 3 24
3 6 1 23
3 24 3 10
3 23 7 6
3 10 9 24
3 23 14 7
3 9 17 24
3 23 15 14
3 17 16 24
3 23 25 15
3 16 26 24
3 23 21 25
3 26 22 24
3 23 0 21
3 22 4 24
3 27 28 29
3 30 31 32
3 33 34 32
3 35 36 37
3 38 39 40
3 41 39 33
3 32 41 33
3 31 42 32
3 43 44 45
3 46 47 48
3 45 49 43
3 49 50 46
3 50 49 51
3 28 52 53
3 54 27 55
3 55 56 57
3 43 58 59
3 60 61 62
3 63 43 64
3 65 64 66
3 65 64 67
3 68 69 58
3 69 68 60
3 64 43 49
3 70 71 72
3 57 73 55
3 74 73 75
3 76 51 77
3 44 78 79
3 80 47 81
3 82 47 80
3 83 84 78
3 41 42 85
3 86 87 88
3 89 41 85
3 86 90 87
3 77 41 89
3 90 91 87
3 87 91 92
3 89 85 93
3 88 94 84
3 95 42 96
3 42 82 96
3 78 97 98
3 79 99 100
3 100 99 101
3 102 76 103
3 90 104 91
3 105 77 93
3 38 106 107
3 108 38 107
3 34 109 110
3 111 112 113
3 111 113 114
3 115 116 117
3 29 112 118
3 117 116 114
3 112 111 118
3 117 113 115
3 119 70 72
3 120 121 122
3 123 124 125
3 126 127 128
3 129 8 130
3 107 106 108
3 131 132 133
3 134 135 136
3 137 122 138
3 119 139 135
3 137 140 141
3 142 123 125
3 143 144 145
3 146 147 148
3 147 149 150
3 151 152 153
3 154 155 156
3 157 158 136
3 159 138 160
3 138 133 161
3 162 163 164
3 165 151 160
3 163 166 160
3 163 162 166
3 167 155 154
3 168 156 155
3 169 170 171
3 170 172 156
3 173 174 175
3 168 170 156
3 174 176 166
3 165 177 173
3 178 170 179
3 173 180 165
3 170 178 181
3 182 172 183
3 175 184 185
3 156 172 182
3 184 175 174
3 186 144 187
3 188 189 190
3 164 191 192
3 189 188 193
3 187 144 194
3 163 191 164
3 195 196 197
3 198 191 199
3 2 1 129
3 200 3 5
3 200 11 3
3 13 8 7
3 1 6 8
3 11 10 3
3 11 201 9
3 202 25 203
3 18 9 201
3 7 14 12
3 18 17 9
3 15 202 12
3 19 26 16
3 203 21 20
3 204 22 26
3 27 72 71
3 5 22 205
3 0 2 21
3 53 116 28
3 206 53 207
3 44 70 208
3 120 48 121
3 83 209 210
3 208 83 44
3 208 211 83
3 48 212 121
3 31 212 48
3 210 37 36
3 36 38 40
3 34 30 32
3 213 34 33
3 39 213 33
3 90 36 40
3 86 210 36
3 31 82 42
3 32 42 41
3 83 210 84
3 51 39 41
3 48 47 82
3 46 50 47
3 45 40 49
3 28 54 52
3 49 40 51
3 55 71 59
3 52 56 53
3 207 56 214
3 55 214 56
3 69 59 58
3 67 64 61
3 65 63 64
3 69 62 214
3 63 58 43
3 65 68 63
3 67 68 65
3 67 60 68
3 64 46 61
3 46 62 61
3 43 59 71
3 74 54 215
3 214 62 207
3 120 206 207
3 70 43 71
3 207 46 120
3 73 54 55
3 52 75 56
3 75 57 56
3 79 45 44
3 73 74 215
3 76 50 51
3 90 45 100
3 51 41 77
3 50 81 47
3 78 94 97
3 44 83 78
3 86 88 84
3 77 89 93
3 87 92 88
3 85 42 95
3 104 100 101
3 78 98 79
3 81 76 102
3 105 76 77
3 106 35 216
3 108 213 38
3 216 37 217
3 218 34 213
3 219 209 220
3 37 219 217
3 110 30 34
3 220 211 221
3 132 212 30
3 221 208 134
3 131 121 212
3 140 111 114
3 222 139 111
3 115 29 28
3 113 112 115
3 115 28 116
3 139 118 111
3 114 113 117
3 118 72 29
3 141 206 120
3 114 116 206
3 119 223 70
3 70 134 208
3 123 224 124
3 225 224 226
3 227 124 225
3 222 226 139
3 222 227 225
3 136 221 134
3 140 114 141
3 131 138 122
3 123 228 229
3 230 231 232
3 142 233 123
3 230 234 235
3 236 230 232
3 230 237 238
3 228 239 236
3 239 142 237
3 240 241 220
3 242 243 132
3 195 128 127
3 244 240 126
3 245 243 246
3 126 236 232
3 142 191 247
3 228 236 128
3 247 237 142
3 237 245 238
3 244 232 231
3 238 246 234
3 241 231 248
3 234 242 249
3 248 220 241
3 249 132 110
3 235 248 231
3 235 249 108
3 219 216 217
3 108 109 218
3 248 106 219
3 240 250 167
3 249 110 108
3 221 250 220
3 133 243 161
3 126 167 251
3 161 245 163
3 251 127 126
3 245 191 163
3 135 226 252
3 137 227 140
3 157 135 252
3 159 137 138
3 135 223 119
3 122 141 120
3 195 229 228
3 142 199 191
3 197 252 229
3 199 253 159
3 252 224 229
3 148 254 146
3 125 227 253
3 255 154 190
3 143 162 164
3 190 254 188
3 186 145 144
3 179 147 178
3 256 186 152
3 178 146 181
3 151 180 152
3 256 180 257
3 146 183 181
3 256 185 145
3 254 182 183
3 145 184 143
3 190 156 182
3 184 162 143
3 158 150 149
3 160 153 159
3 158 250 136
3 154 251 167
3 169 149 179
3 169 168 158
3 160 177 165
3 166 177 160
3 160 161 163
3 167 158 168
3 167 168 155
3 173 176 174
3 166 162 174
3 180 151 165
3 173 257 180
3 171 170 168
3 179 170 169
3 181 172 170
3 196 147 150
3 175 185 257
3 152 198 153
3 258 148 147
3 186 259 152
3 260 190 189
3 148 193 188
3 144 143 194
3 192 143 164
3 195 258 196
3 255 260 195
3 191 259 192
3 193 260 189
3 192 187 194
3 196 157 197
3 251 255 195
3 159 198 199
3 129 1 8
3 200 261 11
3 13 130 8
3 11 261 201
3 202 15 25
3 19 204 26
3 203 25 21
3 204 205 22
3 27 29 72
3 206 116 53
3 44 43 70
3 120 46 48
3 83 211 209
3 31 30 212
3 210 209 37
3 36 35 38
3 39 38 213
3 90 86 36
3 86 84 210
3 31 48 82
3 51 40 39
3 45 90 40
3 28 27 54
3 55 27 71
3 207 53 56
3 55 59 214
3 69 214 59
3 69 60 62
3 63 68 58
3 67 61 60
3 64 49 46
3 46 207 62
3 74 52 54
3 73 215 54
3 52 74 75
3 75 73 57
3 79 100 45
3 50 76 81
3 78 84 94
3 104 90 100
3 105 103 76
3 106 38 35
3 108 218 213
3 216 35 37
3 218 109 34
3 219 37 209
3 110 132 30
3 220 209 211
3 132 131 212
3 221 211 208
3 131 122 121
3 140 222 111
3 115 112 29
3 139 119 118
3 118 119 72
3 141 114 206
3 70 223 134
3 123 229 224
3 225 124 224
3 227 125 124
3 222 225 226
3 222 140 227
3 136 250 221
3 131 133 138
3 123 233 228
3 230 235 231
3 230 238 234
3 236 239 230
3 230 239 237
3 228 233 239
3 239 233 142
3 240 244 241
3 242 246 243
3 195 228 128
3 126 128 236
3 237 247 245
3 244 126 232
3 238 245 246
3 241 244 231
3 234 246 242
3 248 219 220
3 249 242 132
3 235 108 248
3 235 234 249
3 219 106 216
3 108 110 109
3 248 108 106
3 240 220 250
3 133 132 243
3 126 240 167
3 161 243 245
3 251 195 127
3 245 247 191
3 135 139 226
3 137 253 227
3 157 136 135
3 159 253 137
3 135 134 223
3 122 137 141
3 195 197 229
3 142 125 199
3 197 157 252
3 199 125 253
3 252 226 224
3 148 188 254
3 186 256 145
3 179 149 147
3 178 147 146
3 256 152 180
3 146 254 183
3 256 257 185
3 254 190 182
3 145 185 184
3 190 154 156
3 184 174 162
3 158 157 150
3 160 151 153
3 158 167 250
3 154 255 251
3 169 158 149
3 169 171 168
3 166 176 177
3 160 138 161
3 173 177 176
3 173 175 257
3 181 183 172
3 196 258 147
3 152 259 198
3 258 193 148
3 186 187 259
3 260 255 190
3 192 194 143
3 195 260 258
3 191 198 259
3 193 258 260
3 192 259 187
3 196 150 157
3 159 153 198
